<svg xmlns="http://www.w3.org/2000/svg" xmlns:xlink="http://www.w3.org/1999/xlink" width="257.143" height="300" viewBox="0 0 257.143 300"><defs><clipPath id="a"><rect width="257.143" height="300" fill="none"/></clipPath></defs><rect width="257.143" height="300" fill="#fff"/><g clip-path="url(#a)"><path d="M98.222,219.185l-6.609-17.791c-.141-.4-.282-.6-.423-.6s-.294.2-.457.6l-6.609,17.791Zm39.356,19.829a94.331,94.331,0,0,1-17.544-1.688V229.1a107.936,107.936,0,0,0,17.579,1.653q10.828,0,10.83-5.943,0-1.792-2.391-3.164t-10.144-3.533q-7.752-2.163-12.025-5.432a10.855,10.855,0,0,1-4.272-9.143,12,12,0,0,1,5.045-10.019q5.046-3.832,14.644-3.833a86.77,86.77,0,0,1,15.822,1.687v8.192a103.322,103.322,0,0,0-15.856-1.616q-5.7,0-7.911,1.512a4.668,4.668,0,0,0-2.216,4.044q0,1.861,2.252,3.374t10.142,3.692q7.895,2.18,12.166,5.273a10.389,10.389,0,0,1,4.271,8.966,12.329,12.329,0,0,1-5.221,10.2q-5.221,4.01-15.171,4.008m59.653-.315h-22.5a12.163,12.163,0,0,1-8.21-2.673q-3.112-2.673-3.112-7.805V190h33.824v8.3H172.936v11.885h23.239v8.3H172.936v9.74q0,2.18,3.164,2.18h21.131Zm-81.253,0H105.71l-4.5-11.6H81.136L76.6,238.7H66.333l18.423-45.073q1.652-3.939,6.61-3.938a6.377,6.377,0,0,1,6.328,4.183Z" fill="#1d3253"/><path d="M91.75,121.39c.218.08.435.164.646.238l-.646-.245Zm9.1,3.4-1.522-.57Z" fill="#fce053"/><path d="M143.217,94.767a4.338,4.338,0,1,1-4.337-4.337,4.338,4.338,0,0,1,4.337,4.337m49.867,18.755c-8.94,3.411-17.731,6.759-26.678,10.169,5.4,7.685,10.734,15.274,16.2,23.044a1.287,1.287,0,0,1-1.277,2.006c-9.341-1.665-18.492-3.3-27.8-4.96,1.521,8.051,3.009,15.959,4.539,24.05a1.284,1.284,0,0,1-1.965,1.311c-8.138-5.311-16.106-10.523-24.213-15.817-2.947,6.462-5.868,12.862-8.878,19.465a1.285,1.285,0,0,1-2.391-.143c-2.331-7.295-4.593-14.368-6.883-21.536-5.91,3.669-11.739,7.283-17.778,11.033a1.287,1.287,0,0,1-1.93-1.385c1.726-7.357,3.4-14.519,5.116-21.815-7.052.843-14.023,1.679-21.2,2.533a1.286,1.286,0,0,1-1.142-2.093c5-6.06,9.858-11.941,14.811-17.948l.067-.087,13.045,4.89c.406.436,9.687,10.157,22.283,10.157.448,0,.91-.013,1.365-.034a23.829,23.829,0,0,0,3.476-.461V129.39c5.016-1.453,9.767-5.154,14.171-11.051l5.072,3.789c-5.74,7.686-12.223,12.3-19.241,13.776V148.02c.04,0,.075-.006.117-.006.543-.041,1.085-.089,1.629-.149.285-.034.579-.068.864-.108s.57-.084.855-.13c.578-.1,1.155-.2,1.727-.319q.824-.176,1.629-.387c.654-.171,1.3-.354,1.936-.564.428-.13.849-.272,1.272-.43.8-.291,1.6-.6,2.37-.951.257-.108.51-.223.761-.346.585-.271,1.162-.564,1.725-.862.17-.089.334-.183.5-.279q.775-.428,1.53-.9c.2-.128.408-.258.612-.387a36.821,36.821,0,0,0,4.422-3.363c.149-.136.3-.272.455-.406.653-.6,1.277-1.217,1.883-1.857.168-.183.338-.359.508-.542a36.659,36.659,0,0,0,2.65-3.283c.149-.2.292-.4.428-.61.115-.157.217-.319.326-.476s.217-.326.327-.5a36.972,36.972,0,0,0,2.057-3.648q.186-.376.362-.753c.127-.272.25-.545.372-.823.089-.217.185-.428.272-.647.062-.162.13-.319.2-.481.087-.225.17-.449.257-.68.1-.258.192-.523.279-.781.108-.306.21-.61.306-.917.068-.223.143-.448.2-.672.075-.253.149-.5.217-.761.1-.347.183-.694.27-1.047.049-.21.1-.421.145-.631.06-.273.122-.552.174-.828.164-.829.3-1.672.409-2.523.034-.263.068-.535.1-.8.034-.307.062-.607.08-.91s.049-.573.062-.864c.013-.232.028-.47.034-.7,0,0,.611-29.206-34.05-41.2-.068-.027-.142-.048-.217-.075l.217-.129,3.085-1.813L138.41,67.6c6.541-3.818,13.037-7.609,19.707-11.495a1.288,1.288,0,0,1,1.93,1.243c-.856,7.983-1.7,15.8-2.553,23.819,8.51-.965,16.955-1.923,25.6-2.9a1.285,1.285,0,0,1,1.182,2.038c-5.143,7.011-10.163,13.859-15.244,20.8,8.042,3.356,15.991,6.664,24.1,10.04a1.283,1.283,0,0,1-.042,2.385" fill="#1d3253"/><path d="M143.217,94.767a4.338,4.338,0,1,1-4.337-4.337,4.338,4.338,0,0,1,4.337,4.337m22.949,17.938s.615-29.328-34.262-41.277l-11.431,41.277Z" fill="#e9664a"/><path d="M121.176,94.767a4.338,4.338,0,1,1-4.338-4.337,4.339,4.339,0,0,1,4.338,4.337m10.668,17.938v16.682a17.426,17.426,0,0,1-3.789.649c-.349.022-.695.03-1.037.03-9.831,0-17.6-8.076-17.685-8.161l-4.61,4.339c.4.429,9.682,10.154,22.279,10.154.451,0,.908-.013,1.367-.038a24.07,24.07,0,0,0,3.475-.457V129.39c5.016-1.453,9.767-5.154,14.171-11.051l5.072,3.789c-5.741,7.687-12.224,12.3-19.243,13.776v12.117a36.809,36.809,0,0,0,34.322-35.316Z" fill="#fdde58"/><path d="M121.176,94.767a4.338,4.338,0,1,1-4.339-4.337,4.338,4.338,0,0,1,4.339,4.337m5.39,35.288c.15,0,.3.013.45.013.345,0,.69-.011,1.039-.032a17.417,17.417,0,0,0,3.788-.649V112.705h-11.37L131.9,71.428l6.5-3.831c-3.686-5.8-7.309-11.512-11-17.327a1.287,1.287,0,0,0-2.192.036c-3.7,6.254-7.322,12.373-10.961,18.524L95.665,61.894a1.285,1.285,0,0,0-1.7,1.487c1.475,6.532,2.915,12.907,4.379,19.38l-20.989.4a1.286,1.286,0,0,0-.99,2.074L89.242,101.8c-6.349,3.11-12.556,6.15-18.874,9.243a1.285,1.285,0,0,0,.108,2.355c7.119,2.706,34.246,12.847,34.246,12.847l4.611-4.339c.078.083,7.618,7.911,17.233,8.151" fill="#058147"/></g></svg>